<svg width="419" height="280" viewBox="0 0 419 280" fill="none" xmlns="http://www.w3.org/2000/svg">
<mask id="mask0_1537_60" style="mask-type:luminance" maskUnits="userSpaceOnUse" x="0" y="0" width="419" height="280">
<path d="M418.534 0H0V280H418.534V0Z" fill="white"/>
</mask>
<g mask="url(#mask0_1537_60)">
<path d="M415.285 212.349H371.279C374.493 199.233 376.198 185.525 376.198 171.42C376.198 143.382 369.463 116.918 357.524 93.5524H388.732C390.527 93.5524 391.981 92.0971 391.981 90.304C391.981 88.5109 390.527 87.0557 388.732 87.0557H354.023C324.57 35.0784 268.742 0 204.718 0C162.133 0 123.176 15.5197 93.1916 41.2076H40.3865C38.5928 41.2076 37.137 42.6628 37.137 44.4559C37.137 46.2509 38.5928 47.7043 40.3865 47.7043H86.0242C82.3792 51.1995 78.8901 54.8544 75.5645 58.6558H3.24949C1.45577 58.6558 0 60.1111 0 61.9042C0 63.6991 1.45577 65.1525 3.24949 65.1525H70.1592C47.0414 94.3654 33.2376 131.28 33.2376 171.42C33.2376 193.882 37.5622 215.336 45.4204 234.995H36.8585C35.0648 234.995 33.609 236.45 33.609 238.243C33.609 240.038 35.0648 241.491 36.8585 241.491H48.1741C49.3569 244.125 50.6029 246.726 51.912 249.287H13.4622C11.6684 249.287 10.2127 250.741 10.2127 252.536C10.2127 254.331 11.6684 255.784 13.4622 255.784H55.4103C59.4174 262.856 63.9128 269.616 68.852 276.017H340.583C349.814 264.053 357.498 250.835 363.337 236.665H395.231C397.026 236.665 398.48 235.21 398.48 233.417C398.48 231.624 397.026 230.169 395.231 230.169H365.859C367.214 226.452 368.447 222.677 369.548 218.846H415.285C417.08 218.846 418.534 217.39 418.534 215.597C418.534 213.804 417.08 212.349 415.285 212.349Z" fill="#F9F8F8"/>
<path d="M345.038 276.007H311.78C311.78 273.607 313.726 271.66 316.129 271.66H340.691C343.092 271.66 345.04 273.605 345.04 276.007H345.038Z" fill="#ECECEC"/>
<path d="M342.565 276.007H309.307C309.307 273.607 311.253 271.66 313.655 271.66H338.218C340.619 271.66 342.567 273.605 342.567 276.007H342.565Z" fill="#F2F2F2"/>
<path d="M333.967 270.608H317.941V271.66H333.967V270.608Z" fill="#ECECEC"/>
<path d="M98.1324 133.277C98.1324 122.527 89.4154 113.813 78.6624 113.813C67.9094 113.813 59.1924 122.527 59.1924 133.277V178.078C59.1924 188.828 67.9094 197.542 78.6624 197.542C89.4154 197.542 98.1324 188.828 98.1324 178.078V133.277Z" fill="#F2F2F2"/>
<path d="M79.7258 276.104H77.6016V144.943C77.6016 144.356 78.0769 143.881 78.6637 143.881C79.2504 143.881 79.7258 144.356 79.7258 144.943V276.104Z" fill="#E4E4E4"/>
<path d="M79.7257 162.72L73.819 152.492C73.5256 151.984 72.8757 151.811 72.3688 152.104C71.86 152.398 71.6874 153.047 71.9807 153.554L77.8874 163.782L79.7275 162.72H79.7257Z" fill="#E4E4E4"/>
<path d="M79.4398 174.952L85.3465 164.725C85.6399 164.216 85.4653 163.568 84.9584 163.275C84.4496 162.982 83.8016 163.156 83.5082 163.663L77.6016 173.89L79.4417 174.952H79.4398Z" fill="#E4E4E4"/>
<path d="M129.731 275.985H127.033V109.43C127.033 108.686 127.636 108.083 128.381 108.083C129.125 108.083 129.729 108.686 129.729 109.43V275.985H129.731Z" fill="#E4E4E4"/>
<path d="M129.731 132.004L122.231 119.018C121.858 118.373 121.033 118.153 120.389 118.524C119.745 118.897 119.524 119.721 119.895 120.365L127.395 133.351L129.731 132.004Z" fill="#E4E4E4"/>
<path d="M129.371 147.538L136.87 134.552C137.244 133.908 137.023 133.082 136.376 132.711C135.732 132.338 134.906 132.558 134.534 133.204L127.035 146.19L129.371 147.538Z" fill="#E4E4E4"/>
<path d="M90.6736 268.742C91.8081 267.677 92.3262 266.459 91.8787 265.603C91.3254 264.543 89.4722 264.38 87.4947 265.126C87.5949 264.868 87.6896 264.603 87.7751 264.33C88.8297 260.965 88.2263 257.781 86.4307 257.219C84.6797 256.671 82.4385 258.815 81.3504 262.041C80.4498 258.346 78.1343 255.74 76.1493 256.207C74.2813 256.647 73.3659 259.654 73.9657 263.101C71.2287 261.893 68.5864 261.989 67.7452 263.446C66.8744 264.956 68.2317 267.404 70.8164 269.19C69.5909 269.6 68.7479 270.352 68.6328 271.293C68.4917 272.449 69.4832 273.591 71.0578 274.296C70.9706 274.521 70.9464 274.747 70.9984 274.964C71.1618 275.662 72.0475 276.093 73.2025 276.137V276.141H73.3752C73.3752 276.141 73.3845 276.141 73.3882 276.141H87.9923V276.128C88.2764 276.091 88.4899 275.97 88.5624 275.777C88.6106 275.649 88.5902 275.502 88.5141 275.358C89.2828 275.283 89.8622 274.979 90.0516 274.472C90.2001 274.077 90.0887 273.62 89.7805 273.173C91.7766 273.039 93.3122 272.165 93.3605 271.038C93.4032 270.049 92.2853 269.152 90.6699 268.744L90.6736 268.742Z" fill="#E4E4E4"/>
<path d="M121.418 262.537C123.505 260.577 124.457 258.338 123.635 256.762C122.615 254.811 119.208 254.513 115.57 255.886C115.756 255.413 115.929 254.925 116.087 254.422C118.025 248.233 116.918 242.379 113.613 241.343C110.392 240.335 106.273 244.279 104.271 250.21C102.613 243.412 98.3575 238.622 94.7088 239.479C91.2737 240.287 89.5895 245.818 90.6943 252.157C85.6604 249.935 80.8029 250.111 79.2561 252.792C77.6537 255.567 80.1493 260.07 84.9047 263.352C82.6505 264.107 81.1 265.488 80.8883 267.22C80.6283 269.347 82.4536 271.447 85.3485 272.742C85.1888 273.156 85.1461 273.572 85.2389 273.973C85.5416 275.256 87.1663 276.048 89.2943 276.132V276.139H89.6118C89.6118 276.139 89.6285 276.139 89.6359 276.139H116.495V276.115C117.019 276.046 117.41 275.825 117.542 275.471C117.631 275.233 117.592 274.966 117.455 274.697C118.868 274.559 119.932 274.001 120.281 273.069C120.554 272.343 120.35 271.502 119.784 270.678C123.456 270.433 126.277 268.824 126.368 266.754C126.446 264.933 124.39 263.287 121.419 262.533L121.418 262.537Z" fill="#F2F2F2"/>
<path d="M304.276 263.936C302.418 262.19 301.569 260.198 302.301 258.795C303.207 257.057 306.243 256.792 309.481 258.015C309.316 257.594 309.162 257.158 309.022 256.712C307.296 251.201 308.282 245.987 311.225 245.066C314.093 244.168 317.761 247.682 319.543 252.963C321.02 246.911 324.809 242.644 328.059 243.409C331.119 244.129 332.617 249.053 331.633 254.696C336.116 252.718 340.44 252.875 341.818 255.261C343.244 257.731 341.023 261.741 336.788 264.664C338.795 265.336 340.175 266.567 340.364 268.109C340.596 270.004 338.972 271.872 336.394 273.026C336.537 273.394 336.574 273.765 336.491 274.121C336.222 275.265 334.773 275.97 332.881 276.044V276.052H332.599C332.599 276.052 332.584 276.052 332.577 276.052H308.66V276.031C308.194 275.97 307.845 275.773 307.728 275.458C307.648 275.246 307.684 275.009 307.806 274.769C306.547 274.647 305.6 274.149 305.288 273.32C305.047 272.672 305.227 271.924 305.73 271.19C302.46 270.971 299.948 269.54 299.868 267.697C299.798 266.077 301.63 264.61 304.274 263.938L304.276 263.936Z" fill="#EAEAEA"/>
<path d="M331.918 271.174C331.167 270.468 330.824 269.663 331.119 269.097C331.485 268.395 332.712 268.287 334.019 268.781C333.953 268.61 333.891 268.434 333.834 268.254C333.136 266.027 333.535 263.922 334.723 263.549C335.882 263.187 337.364 264.605 338.084 266.739C338.68 264.295 340.212 262.57 341.525 262.878C342.762 263.17 343.367 265.16 342.969 267.439C344.78 266.639 346.529 266.704 347.084 267.667C347.66 268.666 346.763 270.287 345.053 271.467C345.864 271.738 346.421 272.236 346.498 272.859C346.59 273.624 345.935 274.379 344.893 274.845C344.951 274.994 344.966 275.144 344.932 275.287C344.824 275.749 344.238 276.033 343.473 276.063L343.359 276.065C343.356 276.065 343.354 276.065 343.35 276.065H333.687V276.056C333.5 276.031 333.358 275.952 333.31 275.824C333.279 275.738 333.292 275.642 333.342 275.545C332.833 275.495 332.45 275.295 332.324 274.959C332.226 274.697 332.3 274.394 332.502 274.099C331.18 274.01 330.167 273.433 330.133 272.687C330.105 272.031 330.844 271.439 331.914 271.168L331.918 271.174Z" fill="#E4E4E4"/>
<path d="M214.152 264.638C212.401 262.992 211.601 261.115 212.292 259.792C213.146 258.154 216.007 257.904 219.06 259.057C218.904 258.659 218.759 258.249 218.627 257.828C217.001 252.634 217.929 247.719 220.703 246.85C223.407 246.004 226.864 249.315 228.545 254.294C229.936 248.589 233.508 244.567 236.572 245.287C239.456 245.965 240.869 250.607 239.942 255.927C244.168 254.061 248.244 254.21 249.544 256.46C250.888 258.787 248.794 262.568 244.803 265.323C246.696 265.958 247.997 267.116 248.174 268.571C248.393 270.357 246.861 272.119 244.43 273.206C244.566 273.553 244.601 273.902 244.521 274.238C244.269 275.315 242.904 275.979 241.118 276.05V276.056H240.852C240.852 276.056 240.839 276.056 240.832 276.056H218.288V276.035C217.848 275.978 217.521 275.792 217.409 275.495C217.335 275.296 217.367 275.072 217.484 274.845C216.297 274.73 215.404 274.261 215.111 273.479C214.882 272.868 215.053 272.165 215.528 271.473C212.446 271.267 210.077 269.917 210.002 268.18C209.936 266.652 211.662 265.269 214.156 264.636L214.152 264.638Z" fill="#F2F2F2"/>
<path d="M239.498 269.589C238.507 268.657 238.054 267.593 238.444 266.843C238.928 265.915 240.547 265.774 242.278 266.427C242.189 266.203 242.107 265.971 242.033 265.731C241.112 262.789 241.637 260.005 243.208 259.513C244.74 259.034 246.697 260.909 247.65 263.729C248.437 260.497 250.461 258.219 252.197 258.628C253.831 259.012 254.632 261.64 254.106 264.655C256.5 263.599 258.81 263.682 259.545 264.956C260.306 266.275 259.12 268.415 256.86 269.977C257.931 270.335 258.668 270.992 258.769 271.816C258.893 272.828 258.024 273.824 256.648 274.441C256.724 274.637 256.745 274.834 256.7 275.025C256.557 275.636 255.783 276.013 254.773 276.052V276.056H254.622C254.622 276.056 254.615 276.056 254.611 276.056H241.842V276.044C241.593 276.011 241.407 275.907 241.344 275.738C241.301 275.625 241.32 275.499 241.387 275.371C240.715 275.306 240.209 275.04 240.042 274.597C239.912 274.251 240.011 273.852 240.278 273.461C238.533 273.344 237.19 272.579 237.148 271.595C237.11 270.73 238.089 269.947 239.5 269.589H239.498Z" fill="#E4E4E4"/>
<path d="M252.336 115.736C252.177 115.736 252.023 115.76 251.88 115.804C251.885 115.728 251.887 115.652 251.887 115.574C251.887 113.796 250.444 112.354 248.665 112.354C247.189 112.354 245.945 113.347 245.564 114.7C245.384 114.65 245.193 114.622 244.996 114.622C243.843 114.622 242.909 115.556 242.909 116.708C242.909 117.861 243.843 118.795 244.996 118.795C245.033 118.795 245.069 118.795 245.106 118.791V118.795H252.338C253.183 118.795 253.868 118.11 253.868 117.265C253.868 116.421 253.183 115.736 252.338 115.736H252.336Z" fill="#F2F2F2"/>
<path d="M353.439 169.603C352.568 169.603 351.753 169.844 351.056 170.26C350.336 167.143 347.543 164.819 344.207 164.819C343.913 164.819 343.624 164.84 343.339 164.875C341.785 161.411 338.305 159 334.263 159C328.771 159 324.32 163.451 324.32 168.94C324.32 168.999 324.32 169.057 324.322 169.116C323.657 168.803 322.914 168.624 322.13 168.624C319.297 168.624 317 170.921 317 173.753C317 176.586 319.297 178.882 322.13 178.882H353.439C356.001 178.882 358.079 176.805 358.079 174.243C358.079 171.682 356.001 169.604 353.439 169.604V169.603Z" fill="#F2F2F2"/>
<path d="M148.368 191.025C148.941 191.025 149.476 191.183 149.935 191.458C150.408 189.408 152.245 187.879 154.441 187.879C154.635 187.879 154.824 187.892 155.012 187.916C156.035 185.638 158.322 184.051 160.983 184.051C164.597 184.051 167.525 186.979 167.525 190.591C167.525 190.63 167.525 190.667 167.525 190.706C167.961 190.5 168.451 190.383 168.966 190.383C170.83 190.383 172.34 191.894 172.34 193.755C172.34 195.617 170.828 197.128 168.966 197.128H148.37C146.684 197.128 145.317 195.762 145.317 194.077C145.317 192.391 146.684 191.025 148.37 191.025H148.368Z" fill="#F2F2F2"/>
<path d="M353.216 257.787L353.168 257.973C353.162 257.993 353.036 258.47 352.722 259.062C352.43 259.612 351.918 260.363 351.123 260.833C350.329 261.303 349.42 261.388 348.798 261.377C348.13 261.366 347.651 261.245 347.631 261.239L347.445 261.193L347.493 261.007C347.499 260.987 347.625 260.51 347.939 259.918C348.23 259.368 348.743 258.617 349.537 258.147C350.332 257.677 351.24 257.592 351.862 257.603C352.531 257.614 353.01 257.735 353.03 257.741L353.216 257.787ZM347.922 260.911C348.429 261 349.82 261.161 350.932 260.506C352.044 259.849 352.575 258.557 352.742 258.069C352.236 257.98 350.845 257.818 349.732 258.474C348.618 259.131 348.089 260.423 347.922 260.911Z" fill="#E4E4E4"/>
<path d="M350.564 262.227C348.796 262.893 346.828 262.012 346.828 262.012C346.828 262.012 347.725 260.05 349.491 259.383C351.257 258.717 353.227 259.599 353.227 259.599C353.227 259.599 352.33 261.561 350.564 262.227Z" fill="#F2F2F2"/>
<path d="M346.784 236.565V236.803C346.782 236.829 346.773 237.443 346.574 238.25C346.39 239 345.998 240.064 345.181 240.871C344.364 241.679 343.295 242.056 342.541 242.23C341.731 242.418 341.115 242.419 341.089 242.419H340.851L340.853 242.182C340.853 242.156 340.862 241.541 341.061 240.734C341.245 239.984 341.637 238.921 342.454 238.113C343.271 237.306 344.34 236.929 345.094 236.754C345.904 236.567 346.52 236.565 346.546 236.567H346.784V236.565ZM341.341 241.937C341.982 241.89 343.707 241.664 344.849 240.537C345.993 239.409 346.241 237.688 346.295 237.049C345.655 237.096 343.93 237.322 342.788 238.449C341.644 239.578 341.395 241.298 341.341 241.937Z" fill="#E4E4E4"/>
<path d="M344.93 242.726C343.001 244.064 340.357 243.596 340.357 243.596C340.357 243.596 340.843 240.959 342.775 239.62C344.704 238.282 347.348 238.75 347.348 238.75C347.348 238.75 346.861 241.387 344.93 242.726Z" fill="#F2F2F2"/>
<path d="M101.709 230.336L101.859 230.464C101.876 230.479 102.264 230.813 102.674 231.371C103.055 231.891 103.525 232.71 103.603 233.664C103.681 234.618 103.35 235.501 103.059 236.077C102.745 236.695 102.416 237.088 102.401 237.105L102.273 237.257L102.123 237.129C102.106 237.114 101.718 236.78 101.308 236.222C100.927 235.702 100.457 234.883 100.379 233.929C100.301 232.975 100.632 232.092 100.923 231.516C101.237 230.898 101.566 230.504 101.579 230.488L101.707 230.336H101.709ZM102.227 236.686C102.541 236.253 103.319 235.028 103.209 233.697C103.1 232.363 102.134 231.284 101.755 230.907C101.441 231.34 100.663 232.565 100.773 233.896C100.882 235.23 101.848 236.309 102.227 236.686Z" fill="#E4E4E4"/>
<path d="M104.654 234.816C104.475 236.765 102.761 238.202 102.761 238.202C102.761 238.202 101.337 236.48 101.515 234.531C101.694 232.582 103.408 231.145 103.408 231.145C103.408 231.145 104.832 232.867 104.654 234.816Z" fill="#F2F2F2"/>
<path d="M64.1377 252.846L64.3048 252.835C64.3233 252.835 64.7523 252.807 65.3279 252.903C65.8627 252.992 66.6258 253.21 67.233 253.737C67.8402 254.264 68.1596 254.991 68.323 255.507C68.4975 256.062 68.531 256.493 68.531 256.512L68.544 256.677L68.3768 256.688C68.3583 256.688 67.9293 256.716 67.3537 256.619C66.8189 256.53 66.0558 256.313 65.4486 255.786C64.8414 255.259 64.522 254.531 64.3586 254.015C64.1841 253.46 64.1507 253.029 64.1507 253.011L64.1377 252.846ZM68.1782 256.361C68.1132 255.918 67.8625 254.724 67.0139 253.985C66.1635 253.247 64.9491 253.165 64.4997 253.161C64.5647 253.605 64.8154 254.798 65.664 255.537C66.5144 256.276 67.7288 256.358 68.1782 256.361Z" fill="#E4E4E4"/>
<path d="M68.54 253.815C69.578 255.092 69.3904 256.961 69.3904 256.961C69.3904 256.961 67.5206 256.76 66.4845 255.483C65.4483 254.206 65.634 252.337 65.634 252.337C65.634 252.337 67.5039 252.538 68.54 253.815Z" fill="#F2F2F2"/>
<path d="M296.96 247.778L297.148 247.773C297.168 247.773 297.651 247.762 298.292 247.895C298.886 248.02 299.733 248.298 300.39 248.918C301.046 249.538 301.372 250.368 301.53 250.954C301.701 251.585 301.718 252.068 301.718 252.088L301.723 252.276L301.536 252.281C301.515 252.281 301.033 252.293 300.392 252.159C299.798 252.035 298.951 251.756 298.294 251.136C297.638 250.516 297.311 249.686 297.154 249.1C296.983 248.469 296.966 247.986 296.966 247.966L296.96 247.778ZM301.331 251.905C301.278 251.403 301.051 250.054 300.136 249.189C299.217 248.322 297.857 248.174 297.354 248.15C297.408 248.651 297.634 250 298.55 250.865C299.469 251.732 300.828 251.88 301.331 251.905Z" fill="#E4E4E4"/>
<path d="M301.853 249.065C302.958 250.544 302.663 252.632 302.663 252.632C302.663 252.632 300.576 252.322 299.471 250.843C298.366 249.363 298.661 247.275 298.661 247.275C298.661 247.275 300.748 247.585 301.853 249.065Z" fill="#F2F2F2"/>
<g clip-path="url(#clip0_1537_60)">
<mask id="mask1_1537_60" style="mask-type:luminance" maskUnits="userSpaceOnUse" x="114" y="59" width="188" height="208">
<path d="M302 59H114V267H302V59Z" fill="white"/>
</mask>
<g mask="url(#mask1_1537_60)">
<path d="M168.545 71.876C152.095 79.0568 137.377 85.7426 136.14 86.9807C133.172 89.5807 133.172 95.0284 136.016 98.4951C137.129 99.8568 147.024 107.162 157.785 114.59C175.843 126.971 177.698 127.962 180.048 126.476C186.232 122.39 203.548 115.952 208.124 115.952C213.195 115.952 232.985 123.381 236.572 126.6C238.179 128.086 240.653 126.724 255.743 115.952C274.172 102.705 280.974 96.3903 280.974 92.5522C280.974 87.7236 274.048 83.1426 253.64 74.5998C214.927 58.2569 217.153 58.9998 207.506 58.9998C199.095 58.9998 197.487 59.6188 168.545 71.876Z" fill="#F2F2F2"/>
<path d="M290.993 107.533C289.385 108.028 281.345 113.476 273.059 119.419C264.895 125.485 254.877 132.666 250.795 135.514L243.622 140.59L243.746 157.8C243.869 167.209 243.374 176.371 242.756 178.228C241.519 181.323 232.614 188.628 220.74 196.181L215.546 199.523L215.422 231.343V263.286L218.514 265.267C220.988 266.876 222.348 267.124 224.698 266.009C231.748 262.79 290.251 218.962 293.59 214.504C300.269 205.219 300.764 201.257 300.764 155.447C300.764 127.095 300.269 112.609 299.403 110.504C297.796 107.038 295.074 106.047 290.993 107.533Z" fill="#F2F2F2"/>
<path d="M124.911 104.255C126.554 104.761 134.768 110.332 143.235 116.408C151.576 122.612 161.812 129.954 165.982 132.866L173.312 138.057L173.186 155.654C173.059 165.275 173.565 174.643 174.197 176.543C175.46 179.707 184.559 187.177 196.691 194.899L201.999 198.317L202.125 230.853V263.515L198.966 265.542C196.438 267.187 195.048 267.441 192.647 266.301C185.444 263.01 125.669 218.193 122.257 213.636C115.433 204.141 114.928 200.09 114.928 153.248C114.928 124.257 115.433 109.445 116.318 107.293C117.961 103.748 120.741 102.736 124.911 104.255Z" fill="#F2F2F2"/>
<path d="M182.645 158.914C182.645 165.971 183.139 172.285 183.634 173.028C184.747 174.762 200.208 185.904 201.445 185.904C201.939 185.904 202.434 180.085 202.434 172.904V160.028L193.158 153.095C188.087 149.381 183.634 146.285 183.263 146.285C182.892 146.285 182.645 151.981 182.645 158.914Z" fill="#F2F2F2"/>
<path d="M235.52 158.38C235.52 165.658 235.009 172.169 234.499 172.936C233.351 174.723 217.408 186.214 216.132 186.214C215.622 186.214 215.112 180.213 215.112 172.808V159.529L224.678 152.379C229.908 148.549 234.499 145.357 234.882 145.357C235.265 145.357 235.52 151.23 235.52 158.38Z" fill="#F2F2F2"/>
<path d="M207.677 149.653L192.443 140.194C189.853 138.585 190.105 134.72 192.883 133.466L208.129 126.581C209.146 126.122 210.312 126.134 211.318 126.616L225.703 133.494C228.38 134.774 228.631 138.503 226.151 140.134L211.753 149.6C210.52 150.411 208.931 150.431 207.677 149.653Z" fill="#F2F2F2"/>
</g>
</g>
<path d="M251.993 264.623H165.664L167.235 258.938L170.302 247.838L172.159 241.116L174.898 231.208L180.177 212.106L182.916 202.196L202.17 132.533H215.487L222.543 158.063L234.741 202.196L237.479 212.106L242.758 231.208L245.497 241.116L250.422 258.938L251.993 264.623Z" fill="#2825B4"/>
<path d="M251.993 264.623H165.664L167.235 258.938L170.302 247.838C230.46 244.285 222.545 158.065 222.545 158.065L250.423 258.94L251.994 264.625L251.993 264.623Z" fill="#06037D"/>
<path d="M269.655 264.623H148V276.186H269.655V264.623Z" fill="#06037D"/>
<path d="M251.993 264.623H165.664L167.235 258.938H250.422L251.993 264.623Z" fill="#041A29"/>
<path d="M237.479 212.106C237.479 212.106 235.671 250.245 191.836 258.969L250.424 258.938L237.479 212.106Z" fill="#020065"/>
<path d="M237.479 212.106H180.177L182.916 202.196H234.741L237.479 212.106Z" fill="#00B5FF"/>
<path d="M245.498 241.116H172.159L174.898 231.208H242.759L245.498 241.116Z" fill="#00B5FF"/>
<path d="M241.516 264.623C241.516 264.623 225.391 276.793 165.664 276.186H269.657V264.623H241.518H241.516Z" fill="#041A28"/>
<path d="M280.728 276.035H121.627C120.547 276.035 119.672 276.91 119.672 277.99V278.045C119.672 279.125 120.547 280 121.627 280H280.728C281.807 280 282.683 279.125 282.683 278.045V277.99C282.683 276.91 281.807 276.035 280.728 276.035Z" fill="#041A28"/>
<path d="M124.643 276.035H98.8791C97.7992 276.035 96.9238 276.91 96.9238 277.99V278.045C96.9238 279.125 97.7992 280 98.8791 280H124.643C125.723 280 126.598 279.125 126.598 278.045V277.99C126.598 276.91 125.723 276.035 124.643 276.035Z" fill="#041A28"/>
<path d="M87.0674 276.035H59.9983C58.9184 276.035 58.043 276.91 58.043 277.99V278.045C58.043 279.125 58.9184 280 59.9983 280H87.0674C88.1473 280 89.0227 279.125 89.0227 278.045V277.99C89.0227 276.91 88.1473 276.035 87.0674 276.035Z" fill="#041A28"/>
<path d="M315.074 276.035H292.855C291.775 276.035 290.899 276.91 290.899 277.99V278.045C290.899 279.125 291.775 280 292.855 280H315.074C316.154 280 317.029 279.125 317.029 278.045V277.99C317.029 276.91 316.154 276.035 315.074 276.035Z" fill="#041A28"/>
<path d="M344.122 276.035H327.221C326.142 276.035 325.266 276.91 325.266 277.99V278.045C325.266 279.125 326.142 280 327.221 280H344.122C345.202 280 346.078 279.125 346.078 278.045V277.99C346.078 276.91 345.202 276.035 344.122 276.035Z" fill="#041A28"/>
</g>
<defs>
<clipPath id="clip0_1537_60">
<rect width="188" height="208" fill="white" transform="translate(114 59)"/>
</clipPath>
</defs>
</svg>
