<?xml version="1.0" standalone="no"?>
<!DOCTYPE svg PUBLIC "-//W3C//DTD SVG 20010904//EN"
 "http://www.w3.org/TR/2001/REC-SVG-20010904/DTD/svg10.dtd">
<svg version="1.0" xmlns="http://www.w3.org/2000/svg"
 width="1863.000000pt" height="404.000000pt" viewBox="0 0 1863.000000 404.000000"
 preserveAspectRatio="xMidYMid meet">

<g transform="translate(0.000000,404.000000) scale(0.100000,-0.100000)"
fill="#000000" stroke="none">
<path d="M15833 3351 c-90 -148 -163 -272 -163 -275 0 -4 32 -6 72 -4 l72 3
199 255 c109 140 202 263 208 273 9 16 1 17 -108 17 l-118 0 -162 -269z"/>
<path d="M4090 2884 c-14 -2 -63 -9 -110 -15 -105 -14 -232 -55 -306 -100
-113 -68 -191 -189 -236 -364 -23 -89 -23 -96 -23 -735 l0 -645 27 -96 c64
-234 178 -355 393 -417 145 -42 205 -47 580 -47 298 0 376 3 450 17 365 70
507 234 544 629 6 63 11 214 11 337 l0 222 -465 0 -465 0 0 -120 0 -120 330 0
330 0 0 -102 c0 -150 -17 -323 -37 -387 -23 -76 -105 -159 -186 -189 -102 -38
-178 -44 -540 -40 -371 5 -407 10 -511 66 -97 52 -150 126 -177 247 -20 87
-20 1213 0 1300 36 159 123 246 292 292 56 16 111 18 429 18 313 0 375 -2 432
-17 197 -51 266 -133 291 -345 l11 -93 134 0 135 0 -6 113 c-10 181 -47 285
-135 380 -88 94 -203 151 -382 189 -82 17 -140 21 -440 23 -190 2 -356 1 -370
-1z"/>
<path d="M120 1670 l0 -1190 135 0 135 0 0 1190 0 1190 -135 0 -135 0 0 -1190z"/>
<path d="M970 1675 l0 -1185 130 0 130 0 2 1053 3 1054 639 -1054 640 -1053
203 0 203 0 0 1185 0 1185 -130 0 -130 0 -2 -1056 -3 -1056 -640 1053 -641
1054 -202 3 -202 2 0 -1185z"/>
<path d="M5900 1675 l0 -1185 830 0 830 0 0 125 0 125 -700 0 -700 0 0 425 0
425 680 0 680 0 0 120 0 120 -680 0 -680 0 0 390 0 390 700 0 700 0 0 125 0
125 -830 0 -830 0 0 -1185z"/>
<path d="M7980 1675 l0 -1185 130 0 130 0 0 1057 c0 895 2 1055 14 1043 7 -8
298 -484 646 -1057 l632 -1043 204 0 204 0 0 1185 0 1185 -130 0 -130 0 -2
-1057 -3 -1058 -641 1055 -642 1055 -206 3 -206 2 0 -1185z"/>
<path d="M10510 1670 l0 -1190 135 0 135 0 0 1190 0 1190 -135 0 -135 0 0
-1190z"/>
<path d="M11350 1675 l0 -1185 835 0 835 0 0 125 0 125 -700 0 -700 0 0 425 0
425 680 0 680 0 0 120 0 120 -680 0 -680 0 0 390 0 390 700 0 700 0 0 125 0
125 -835 0 -835 0 0 -1185z"/>
<path d="M13440 1675 l0 -1185 130 0 130 0 0 460 0 460 476 0 c528 0 576 -4
654 -61 50 -36 84 -105 99 -199 6 -36 11 -199 11 -362 l0 -298 140 0 140 0 0
298 c0 321 -9 442 -40 530 -34 97 -103 163 -207 198 l-53 18 61 22 c74 27 123
65 166 128 63 93 77 199 70 526 -6 258 -16 329 -58 413 -50 97 -112 148 -228
187 -131 44 -235 50 -883 50 l-608 0 0 -1185z m1300 911 c93 -24 136 -56 168
-124 l27 -57 0 -265 c0 -198 -3 -275 -14 -303 -16 -47 -63 -102 -105 -124 -81
-43 -122 -46 -628 -50 l-488 -5 0 477 0 477 488 -5 c415 -3 497 -6 552 -21z"/>
<path d="M15730 1675 l0 -1185 130 0 130 0 0 1185 0 1185 -130 0 -130 0 0
-1185z"/>
<path d="M17190 2856 c0 -2 -196 -533 -435 -1180 -239 -647 -435 -1179 -435
-1181 0 -3 60 -5 134 -5 l133 0 111 302 110 303 600 3 600 2 30 -77 c16 -43
67 -180 113 -305 l84 -228 136 0 136 0 -334 898 c-183 493 -381 1026 -440
1185 l-106 287 -219 0 c-120 0 -218 -2 -218 -4z m492 -866 c125 -338 231 -625
234 -637 l6 -23 -511 0 c-281 0 -511 2 -511 5 0 7 460 1257 466 1267 3 5 24 8
47 6 l41 -3 228 -615z"/>
</g>
</svg>
