<svg width="156" height="40" viewBox="0 0 156 40" fill="none" xmlns="http://www.w3.org/2000/svg">
<path d="M98.244 0.0455933C96.914 0.190689 95.7865 0.66225 95.1331 1.33332C94.5086 1.96811 94.0691 3.08656 93.8725 4.50124C93.8378 4.75515 93.7973 6.04288 93.78 7.36083C93.7279 11.1998 93.8783 12.4573 94.5317 13.7934C95.1157 14.9844 96.2317 15.6615 98.0243 15.9094C98.7702 16.0122 101.355 16.0303 102.089 15.9396C104.691 15.6071 105.946 14.3315 106.282 11.6714C106.328 11.2905 106.368 10.7041 106.368 10.3716V9.77304L104.333 9.78514L102.292 9.80327L102.257 10.4381C102.199 11.6049 101.864 12.0643 100.95 12.2518C100.464 12.3545 99.3195 12.3001 98.9495 12.1611C98.0821 11.8346 97.9549 11.218 98.0011 7.57847C98.0301 5.19649 98.0647 4.86398 98.3134 4.38637C98.5852 3.8604 99.2791 3.62462 100.378 3.68507C101.158 3.72739 101.534 3.85435 101.829 4.17477C102.112 4.47705 102.199 4.74911 102.245 5.40204L102.28 5.90383H104.263H106.253V5.2509C106.247 3.69112 105.929 2.43967 105.31 1.57514C104.813 0.867802 103.836 0.359967 102.546 0.124187C101.898 0.00931931 99.0593 -0.0450916 98.244 0.0455933Z" fill="white"/>
<path d="M112.856 0.0395594C110.873 0.251158 109.635 0.982681 109.04 2.2825C108.768 2.87497 108.606 3.41303 108.473 4.21106C108.346 4.95467 108.288 9.94838 108.392 11.0426C108.71 14.2952 109.89 15.6071 112.816 15.9396C113.747 16.0484 117.268 15.988 117.933 15.855C120.558 15.329 121.559 13.9143 121.75 10.4562C121.819 9.16245 121.819 6.82883 121.75 5.5411C121.634 3.46744 121.241 2.22204 120.425 1.36356C119.807 0.722718 119.061 0.359979 117.875 0.130244C117.436 0.0456047 116.933 0.0214224 115.331 0.00328541C114.232 -0.00275993 113.122 0.015377 112.856 0.0395594ZM116.256 3.73345C116.765 3.81809 117.176 4.05387 117.338 4.3622C117.58 4.83376 117.65 5.44437 117.684 7.3548C117.719 9.25918 117.65 10.5953 117.499 11.1938C117.378 11.6835 117.164 11.9434 116.742 12.1309C116.412 12.276 116.36 12.282 115.071 12.282C113.926 12.282 113.7 12.2639 113.434 12.1732C112.532 11.8407 112.411 11.2905 112.457 7.59058C112.48 5.15418 112.509 4.87608 112.769 4.35615C112.902 4.07805 113.348 3.81205 113.799 3.73345C114.221 3.65486 115.823 3.65486 116.256 3.73345Z" fill="white"/>
<path d="M46 7.98344V15.8186H47.9949H49.9899V13.5454V11.2783L51.5106 11.2965C52.9909 11.3146 53.0314 11.3206 53.3147 11.4657C53.546 11.5866 53.6328 11.6773 53.7484 11.9192C53.893 12.2154 53.893 12.2396 53.9103 14.017L53.9277 15.8186H55.9804H58.0274V13.8961C58.0274 12.4028 58.0043 11.895 57.9407 11.5927C57.6747 10.4259 56.9692 9.75482 55.6277 9.41021C55.2634 9.31348 55.2403 9.30139 55.3964 9.26512C56.8709 8.90842 57.6689 8.12854 57.9465 6.74408C58.0737 6.11533 58.0332 3.50966 57.8886 2.97159C57.455 1.34531 56.5066 0.644019 54.292 0.299417C53.7831 0.220823 52.9389 0.196641 49.8337 0.178504L46 0.148275V7.98344ZM52.9505 3.73335C53.413 3.83612 53.627 3.99936 53.8005 4.38628C53.9392 4.7067 53.9508 4.77924 53.9508 5.66191C53.9508 6.9315 53.8236 7.30028 53.2916 7.56024C53.043 7.67511 52.91 7.6872 51.5106 7.70534L49.9899 7.72348V5.69818V3.66684H51.3198C52.0657 3.66684 52.777 3.69707 52.9505 3.73335Z" fill="white"/>
<path d="M60.5139 5.00901C60.5139 11.5141 60.5717 12.3847 61.0864 13.479C61.7918 14.9843 62.9136 15.7159 64.8623 15.9335C65.1745 15.9698 66.2501 16 67.262 16C69.8062 16 70.6447 15.8851 71.5872 15.4015C72.5529 14.9057 73.2294 14.0835 73.5822 12.9832C73.8713 12.0885 73.8828 11.7136 73.9118 5.73448L73.9407 0.160396H71.94H69.9392V4.79741C69.9392 7.35472 69.9103 9.7488 69.8814 10.1176C69.7831 11.3932 69.5518 11.8708 68.91 12.1429C68.5977 12.2759 68.511 12.2819 67.2215 12.2819C66.0708 12.2759 65.8222 12.2638 65.6082 12.1731C65.0473 11.9434 64.816 11.629 64.6368 10.8793C64.5558 10.5226 64.5443 9.8153 64.5211 5.31129L64.498 0.160396H62.5031H60.5139V5.00901Z" fill="white"/>
<path d="M76.7625 7.98949V15.8186H78.6706H80.5788L80.5904 10.0148L80.6078 4.20491L81.8741 7.39701C82.5738 9.15025 83.6088 11.768 84.1813 13.2008L85.2221 15.8186H88.2174H91.2185V7.98949V0.160368H89.2814H87.3443V5.94606V11.7378L85.0197 5.94606L82.701 0.160368H79.7288H76.7625V7.98949Z" fill="white"/>
<path d="M124.352 7.98949V15.8186H128.475C132.852 15.8186 133.471 15.7884 134.413 15.5405C136.466 14.9964 137.351 13.7691 137.651 11.0728C137.75 10.1599 137.726 5.56518 137.617 4.68856C137.431 3.17715 137.073 2.2703 136.385 1.55087C135.899 1.04303 135.5 0.795161 134.789 0.565427C133.684 0.196642 133.095 0.160368 128.359 0.160368H124.352V7.98949ZM132.216 3.73335C132.673 3.8059 133.106 4.04772 133.257 4.30164C133.32 4.40442 133.413 4.68252 133.471 4.91225C133.563 5.28103 133.575 5.63773 133.575 7.98949C133.575 10.0208 133.557 10.7342 133.494 11.0123C133.349 11.6894 133.164 11.9433 132.684 12.1428C132.378 12.2698 132.268 12.2819 130.383 12.3L128.399 12.3182V7.99553V3.66685H130.123C131.065 3.66685 132.008 3.69707 132.216 3.73335Z" fill="white"/>
<path d="M140.311 7.98949V15.8186H146.007H151.702V14.0654V12.3121H148.002H144.301V10.8612V9.41021H147.828H151.355V7.8988V6.38739H147.828H144.301V5.02712V3.66685L147.932 3.65475L151.558 3.63662V1.91361V0.190597L145.937 0.17246L140.311 0.160368V7.98949Z" fill="white"/>
<path d="M140.003 22.62C139.464 23.5113 139.028 24.258 139.028 24.2761C139.028 24.3002 139.219 24.3122 139.458 24.3002L139.889 24.2821L141.08 22.7464C141.732 21.9033 142.288 21.1626 142.324 21.1024C142.378 21.006 142.33 21 141.678 21H140.972L140.003 22.62Z" fill="white"/>
<path d="M69.7505 25.4323C69.6667 25.4444 69.3736 25.4865 69.0924 25.5227C68.4643 25.607 67.7045 25.8539 67.2618 26.1249C66.5858 26.5344 66.1191 27.2631 65.8499 28.317C65.7123 28.8529 65.7123 28.8951 65.7123 32.7433V36.6276L65.8738 37.2057C66.2567 38.6149 66.9387 39.3436 68.225 39.717C69.0924 39.9699 69.4514 40 71.6948 40C73.4776 40 73.9442 39.9819 74.3869 39.8976C76.5705 39.4761 77.42 38.4884 77.6414 36.1097C77.6773 35.7303 77.7072 34.8209 77.7072 34.0802V32.7433H72.1435V34.1886H76.0919V34.8029C76.0919 35.7062 75.9902 36.748 75.8706 37.1334C75.733 37.5911 75.2424 38.091 74.7578 38.2716C74.1476 38.5005 73.693 38.5366 71.5273 38.5125C69.3078 38.4824 69.0924 38.4523 68.4702 38.1151C67.8899 37.8019 67.5729 37.3563 67.4113 36.6276C67.2917 36.1036 67.2917 29.3227 67.4113 28.7987C67.6267 27.8412 68.1472 27.3173 69.1582 27.0403C69.4932 26.9439 69.8223 26.9319 71.7247 26.9319C73.5972 26.9319 73.9681 26.9439 74.3092 27.0342C75.4877 27.3414 75.9005 27.8352 76.0501 29.1119L76.1159 29.672H77.7251L77.6893 28.9914C77.6294 27.9014 77.4081 27.2751 76.8816 26.703C76.3552 26.1369 75.6672 25.7937 74.5963 25.5648C74.1057 25.4625 73.7588 25.4384 71.964 25.4263C70.8273 25.4143 69.8342 25.4203 69.7505 25.4323Z" fill="white"/>
<path d="M46 39.9096H47.6153V25.5768H46V39.9096Z" fill="white"/>
<path d="M51.0851 39.8494H52.6406L52.6705 27.1607L56.4933 33.5081L60.3221 39.8494H62.751V25.5769H61.1955L61.1656 38.2957L53.5021 25.607L52.2936 25.5889L51.0851 25.5769V39.8494Z" fill="white"/>
<path d="M80.5788 39.8494H90.5097V38.3439H82.1342V33.225H90.2704V31.7797H82.1342V27.0824H90.5097V25.5769H80.5788V39.8494Z" fill="white"/>
<path d="M93.0223 39.8494H94.5778V33.484C94.5778 28.0941 94.5897 27.1306 94.6615 27.2028C94.7034 27.251 96.4443 30.1176 98.5262 33.5683L102.307 39.8494H104.748V25.5769H103.193L103.163 38.3138L95.4871 25.607L94.2547 25.5889L93.0223 25.5769V39.8494Z" fill="white"/>
<path d="M108.158 39.9096H109.773V25.5768H108.158V39.9096Z" fill="white"/>
<path d="M113.183 39.8494H123.174V38.3439H114.799V33.225H122.935V31.7797H114.799V27.0824H123.174V25.5769H113.183V39.8494Z" fill="white"/>
<path d="M125.687 39.8494H127.242V34.309H130.09C133.249 34.309 133.536 34.3331 134.002 34.6764C134.301 34.8932 134.505 35.3087 134.595 35.8748C134.631 36.0916 134.66 37.0732 134.66 38.0548V39.8494H136.336V38.0548C136.336 36.1217 136.282 35.393 136.096 34.8631C135.893 34.2789 135.48 33.8814 134.858 33.6707L134.541 33.5623L134.906 33.4298C135.348 33.2672 135.642 33.0383 135.899 32.6589C136.276 32.0989 136.359 31.4605 136.318 29.4913C136.282 27.9376 136.222 27.51 135.971 27.0041C135.671 26.42 135.301 26.1128 134.607 25.878C133.823 25.613 133.201 25.5769 129.324 25.5769H125.687V39.8494ZM133.464 27.2269C134.02 27.3715 134.278 27.5642 134.469 27.9737L134.631 28.317V29.9128C134.631 31.1052 134.613 31.5689 134.547 31.7376C134.451 32.0206 134.17 32.3518 133.919 32.4843C133.434 32.7433 133.189 32.7613 130.162 32.7854L127.242 32.8155V27.0704L130.162 27.1005C132.644 27.1185 133.135 27.1366 133.464 27.2269Z" fill="white"/>
<path d="M139.387 39.8494H140.942V25.5769H139.387V39.8494Z" fill="white"/>
<path d="M148.121 25.6009C148.121 25.613 146.949 28.8108 145.519 32.7071C144.089 36.6035 142.916 39.8073 142.916 39.8193C142.916 39.8374 143.275 39.8494 143.718 39.8494H144.514L145.178 38.0307L145.836 36.206L149.425 36.1879L153.015 36.1759L153.194 36.6396C153.29 36.8986 153.595 37.7236 153.87 38.4764L154.373 39.8494H156L154.002 34.4415C152.907 31.4726 151.723 28.2628 151.37 27.3052L150.735 25.5769H149.425C148.707 25.5769 148.121 25.5889 148.121 25.6009ZM151.064 30.8162C151.812 32.8517 152.446 34.58 152.464 34.6523L152.5 34.7908H149.443C147.762 34.7908 146.386 34.7788 146.386 34.7607C146.386 34.7185 149.138 27.1908 149.174 27.1306C149.192 27.1005 149.318 27.0824 149.455 27.0944L149.7 27.1125L151.064 30.8162Z" fill="white"/>
<path d="M10.3609 2.47712C7.1821 3.85801 4.33792 5.1437 4.09891 5.38179C3.52528 5.88177 3.52528 6.92938 4.07499 7.59604C4.2901 7.85791 6.20216 9.26264 8.28155 10.6912C11.7711 13.0721 12.1296 13.2625 12.5837 12.9768C13.7788 12.1911 17.1249 10.9531 18.0092 10.9531C18.9891 10.9531 22.8133 12.3816 23.5064 13.0006C23.8171 13.2863 24.2951 13.0244 27.211 10.9531C30.7722 8.40552 32.0868 7.19128 32.0868 6.45321C32.0868 5.52465 30.7484 4.64372 26.8047 3.00091C19.3237 -0.141862 19.7539 0.000992055 17.8897 0.000992055C16.2644 0.000992055 15.9537 0.120036 10.3609 2.47712Z" fill="white"/>
<path d="M34.0229 9.33402C33.7121 9.42924 32.1586 10.4768 30.5572 11.6197C28.9798 12.7863 27.0438 14.1672 26.2551 14.7148L24.8688 15.691L24.8927 19.0004C24.9166 20.8099 24.821 22.5717 24.7015 22.9289C24.4625 23.5241 22.7417 24.9288 20.4472 26.3812L19.4433 27.024L19.4194 33.1429V39.2857L20.017 39.6667C20.495 39.976 20.7579 40.0237 21.212 39.8094C22.5744 39.1903 33.8794 30.762 34.5248 29.9049C35.8154 28.1192 35.911 27.3573 35.911 18.548C35.911 13.0958 35.8154 10.3102 35.6481 9.90541C35.3374 9.23879 34.8116 9.0483 34.0229 9.33402Z" fill="white"/>
<path d="M1.92921 8.70361C2.24668 8.801 3.83399 9.87216 5.47017 11.0408C7.08194 12.2336 9.05998 13.6457 9.86586 14.2056L11.2822 15.2038L11.2578 18.5877C11.2334 20.438 11.3311 22.2395 11.4532 22.6047C11.6974 23.2133 13.4556 24.6497 15.8 26.1347L16.8257 26.7921L16.8501 33.0487V39.3298L16.2396 39.7195C15.7512 40.0358 15.4826 40.0846 15.0186 39.8655C13.6266 39.2325 2.07574 30.6142 1.41638 29.7378C0.0976817 27.9119 0 27.1329 0 18.1252C0 12.5501 0.0976817 9.70175 0.268625 9.28789C0.586092 8.60622 1.12334 8.41147 1.92921 8.70361Z" fill="white"/>
<path d="M13.0857 19.2147C13.0857 20.5718 13.1813 21.786 13.2769 21.9289C13.492 22.2622 16.4796 24.405 16.7186 24.405C16.8143 24.405 16.9098 23.286 16.9098 21.905V19.4289L15.1173 18.0956C14.1373 17.3813 13.2769 16.7861 13.2052 16.7861C13.1335 16.7861 13.0857 17.8813 13.0857 19.2147Z" fill="white"/>
<path d="M23.3033 19.1122C23.3033 20.5117 23.2047 21.7639 23.1061 21.9112C22.8843 22.255 19.8033 24.4647 19.5568 24.4647C19.4582 24.4647 19.3596 23.3108 19.3596 21.8867V19.3332L21.2082 17.9582C22.2188 17.2216 23.1061 16.6078 23.18 16.6078C23.254 16.6078 23.3033 17.7372 23.3033 19.1122Z" fill="white"/>
<path d="M17.9229 17.4338L14.9792 15.6148C14.4785 15.3054 14.5273 14.5622 15.0641 14.321L18.0103 12.997C18.2068 12.9087 18.4321 12.9112 18.6265 13.0037L21.4063 14.3264C21.9235 14.5725 21.9721 15.2897 21.4928 15.6033L18.7105 17.4236C18.4722 17.5795 18.1652 17.5835 17.9229 17.4338Z" fill="white"/>
</svg>
